<svg width="344" height="344" viewBox="0 0 344 344" fill="none" xmlns="http://www.w3.org/2000/svg">
<path d="M163.802 231.07L149.377 226.904L158.227 195.802C158.63 194.453 157.997 192.986 156.79 192.34C155.526 191.695 154.032 191.988 153.112 193.044L120.698 232.009C119.664 233.301 119.779 235.178 121.043 236.235C121.388 236.528 121.733 236.704 122.135 236.822L136.388 240.93L123.802 275.963C123.285 277.312 123.859 278.838 125.123 279.601C126.388 280.305 127.94 280.07 128.859 278.955L165.296 235.941C166.331 234.708 166.216 232.772 165.009 231.716C164.607 231.422 164.262 231.188 163.802 231.07Z" fill="black"/>
<path d="M207.85 36H79.1502C75.2175 36 72 39.81 72 44.4669V154.533C72 159.19 75.2175 163 79.1502 163H207.85C211.783 163 215 159.19 215 154.533V44.4669C215 39.81 211.783 36 207.85 36ZM200.7 146.066H86.3004V52.9338H200.7V146.066V146.066Z" fill="black"/>
<path d="M265.167 329.667H21.5C17.5581 329.667 14.3331 332.892 14.3331 336.834C14.3331 340.775 17.5581 344 21.5 344H265.167C269.109 344 272.334 340.775 272.334 336.833C272.333 332.892 269.108 329.667 265.167 329.667Z" fill="black"/>
<path d="M318.558 83.9219L296.628 58.6238C295.768 57.6207 294.55 57.0469 293.26 57.1188C285.448 57.2619 283.083 64.9307 286.81 69.2307L307.665 93.3107C312.538 98.9007 315.333 102.341 315.333 107.501H295.266C290.536 107.501 286.666 111.371 286.666 116.101V150.5C286.666 158.383 293.116 164.833 300.999 164.833H315.332V272.333C315.332 276.275 312.107 279.5 308.166 279.5H292.327C288.171 279.5 286.666 275.63 286.666 272.333V178.808C286.666 166.195 274.769 157.666 263.661 157.666H250.832V35.8331C250.833 16.0531 234.78 0 215 0H71.6669C51.8869 0 35.8338 16.0531 35.8338 35.8331V314.831C35.8338 322.069 41.6388 322.141 51.3138 322.356C56.5457 322.428 63.7838 322.499 71.6669 322.499H215C222.955 322.499 230.122 322.427 235.353 322.356C245.028 322.213 250.833 322.069 250.833 314.831V172H263.661C268.033 172 272.333 175.368 272.333 178.808V272.333C272.333 284.588 280.933 293.833 292.328 293.833H308.166C320.063 293.833 329.666 284.23 329.666 272.333V107.5C329.667 96.75 323.79 89.9419 318.558 83.9219ZM236.5 308.023C231.77 308.095 224.532 308.166 215 308.166H71.6669C62.135 308.166 54.8969 308.094 50.1669 308.023V35.8331C50.1669 23.9362 59.77 14.3331 71.6669 14.3331H215C226.897 14.3331 236.5 23.9362 236.5 35.8331V308.023ZM315.333 150.5H301V121.833H315.333V150.5V150.5Z" fill="black"/>
<rect x="80" y="44" width="125" height="109" fill="black"/>
</svg>
